<svg width="14" height="14" viewBox="0 0 14 14" fill="none" xmlns="http://www.w3.org/2000/svg">
<mask id="mask0_47_46" style="mask-type:alpha" maskUnits="userSpaceOnUse" x="-2" y="-2" width="18" height="18">
<rect x="-1.39967" y="-1.39992" width="16.8001" height="16.8001" fill="#D9D9D9"/>
</mask>
<g mask="url(#mask0_47_46)">
<path d="M2.69502 10.5701C3.29002 10.1151 3.95502 9.75631 4.69003 9.49381C5.42503 9.23131 6.19504 9.10005 7.00004 9.10005C7.80505 9.10005 8.57505 9.23131 9.31006 9.49381C10.0451 9.75631 10.7101 10.1151 11.3051 10.5701C11.7134 10.0917 12.0313 9.54922 12.2588 8.94255C12.4863 8.33588 12.6001 7.68838 12.6001 7.00004C12.6001 5.44837 12.0547 4.12711 10.9638 3.03627C9.87298 1.94543 8.55172 1.40001 7.00004 1.40001C5.44837 1.40001 4.12711 1.94543 3.03627 3.03627C1.94543 4.12711 1.40001 5.44837 1.40001 7.00004C1.40001 7.68838 1.51376 8.33588 1.74126 8.94255C1.96876 9.54922 2.28668 10.0917 2.69502 10.5701ZM7.00004 7.70005C6.3117 7.70005 5.73128 7.4638 5.25878 6.99129C4.78628 6.51879 4.55003 5.93837 4.55003 5.25003C4.55003 4.56169 4.78628 3.98127 5.25878 3.50877C5.73128 3.03627 6.3117 2.80002 7.00004 2.80002C7.68838 2.80002 8.2688 3.03627 8.7413 3.50877C9.21381 3.98127 9.45006 4.56169 9.45006 5.25003C9.45006 5.93837 9.21381 6.51879 8.7413 6.99129C8.2688 7.4638 7.68838 7.70005 7.00004 7.70005ZM7.00004 14.0001C6.0317 14.0001 5.1217 13.8163 4.27003 13.4488C3.41835 13.0813 2.67752 12.5826 2.04751 11.9526C1.41751 11.3226 0.918756 10.5817 0.551253 9.73006C0.183751 8.87839 0 7.96838 0 7.00004C0 6.0317 0.183751 5.1217 0.551253 4.27003C0.918756 3.41835 1.41751 2.67752 2.04751 2.04751C2.67752 1.41751 3.41835 0.918756 4.27003 0.551253C5.1217 0.183751 6.0317 0 7.00004 0C7.96838 0 8.87839 0.183751 9.73006 0.551253C10.5817 0.918756 11.3226 1.41751 11.9526 2.04751C12.5826 2.67752 13.0813 3.41835 13.4488 4.27003C13.8163 5.1217 14.0001 6.0317 14.0001 7.00004C14.0001 7.96838 13.8163 8.87839 13.4488 9.73006C13.0813 10.5817 12.5826 11.3226 11.9526 11.9526C11.3226 12.5826 10.5817 13.0813 9.73006 13.4488C8.87839 13.8163 7.96838 14.0001 7.00004 14.0001ZM7.00004 12.6001C7.61838 12.6001 8.20172 12.5097 8.75005 12.3288C9.29839 12.148 9.80006 11.8884 10.2551 11.5501C9.80006 11.2117 9.29839 10.9521 8.75005 10.7713C8.20172 10.5905 7.61838 10.5001 7.00004 10.5001C6.38171 10.5001 5.79837 10.5905 5.25003 10.7713C4.7017 10.9521 4.20003 11.2117 3.74502 11.5501C4.20003 11.8884 4.7017 12.148 5.25003 12.3288C5.79837 12.5097 6.38171 12.6001 7.00004 12.6001ZM7.00004 6.30004C7.30338 6.30004 7.55421 6.20087 7.75255 6.00254C7.95088 5.8042 8.05005 5.55337 8.05005 5.25003C8.05005 4.9467 7.95088 4.69586 7.75255 4.49753C7.55421 4.29919 7.30338 4.20003 7.00004 4.20003C6.69671 4.20003 6.44587 4.29919 6.24754 4.49753C6.0492 4.69586 5.95004 4.9467 5.95004 5.25003C5.95004 5.55337 6.0492 5.8042 6.24754 6.00254C6.44587 6.20087 6.69671 6.30004 7.00004 6.30004Z" fill="#222222"/>
</g>
</svg>
