<svg width="64" height="64" viewBox="0 0 64 64" fill="none" xmlns="http://www.w3.org/2000/svg">
<path d="M30.04 18.96C21.769 18.96 15.04 25.689 15.04 33.96C15.04 42.231 21.769 48.96 30.04 48.96C38.311 48.96 45.04 42.231 45.04 33.96C45.04 25.689 38.311 18.96 30.04 18.96ZM30.04 46.96C22.8716 46.96 17.04 41.1284 17.04 33.96C17.04 26.7915 22.8716 20.96 30.04 20.96C37.2085 20.96 43.04 26.7915 43.04 33.96C43.04 41.1284 37.2085 46.96 30.04 46.96Z" fill="white"/>
<path d="M32.1157 7.04302C31.8369 7.02154 31.5644 7.11675 31.3603 7.30669C31.1562 7.49614 31.04 7.76177 31.04 8.04009V11.0049C30.7081 10.9907 30.3806 10.96 30.04 10.96C23.72 10.96 17.9881 13.5233 13.8267 17.6637C13.8113 17.6773 13.7916 17.6821 13.7768 17.6968C13.7621 17.7115 13.7573 17.7313 13.7437 17.7467C9.60333 21.9081 7.04004 27.64 7.04004 33.96C7.04004 40.28 9.60333 46.012 13.7437 50.1733C13.7573 50.1887 13.7621 50.2085 13.7768 50.2232C13.7916 50.2379 13.8113 50.2427 13.8267 50.2563C17.9881 54.3967 23.72 56.96 30.04 56.96C37.229 56.96 44.4466 53.2648 48.6806 47.4173C51.5034 43.5188 53.04 38.7731 53.04 33.96C53.04 33.6195 53.0094 33.292 52.9952 32.96H55.96C56.2383 32.96 56.5039 32.8438 56.6934 32.6397C56.8828 32.4356 56.978 32.1617 56.957 31.8843C55.956 18.7232 45.2768 8.044 32.1157 7.04302ZM45.5557 48.0616L43.4751 45.981C43.0845 45.5904 42.4516 45.5904 42.061 45.981C41.6704 46.3716 41.6704 47.0044 42.061 47.3951L44.1417 49.4757C40.6418 52.6595 36.0749 54.6705 31.04 54.9093V51.96C31.04 51.4078 30.5923 50.96 30.04 50.96C29.4878 50.96 29.04 51.4078 29.04 51.96V54.9093C24.0051 54.6705 19.4383 52.6595 15.9384 49.4757L18.019 47.3951C18.4097 47.0044 18.4097 46.3716 18.019 45.981C17.6284 45.5904 16.9956 45.5904 16.605 45.981L14.5244 48.0616C11.3405 44.5617 9.32862 39.9932 9.08796 34.96H12.04C12.5923 34.96 13.04 34.5123 13.04 33.96C13.04 33.4078 12.5923 32.96 12.04 32.96H9.08796C9.32862 27.9268 11.3405 23.3583 14.5244 19.8584C14.5244 19.8584 16.5974 21.9315 16.605 21.939C16.9665 22.3005 17.6354 22.3227 18.019 21.939C18.4097 21.5484 18.4097 20.9156 18.019 20.525L15.9384 18.4443C19.6702 15.0496 24.6096 12.96 30.04 12.96C30.381 12.96 30.7085 12.9894 31.04 13.005V16.0699C31.04 16.5792 31.4228 17.0074 31.9292 17.0635C39.7612 17.938 46.0728 24.2491 46.936 32.0699C46.9922 32.5767 47.4204 32.96 47.9302 32.96H50.9951C51.0107 33.2916 51.04 33.6191 51.04 33.96C51.04 39.3905 48.9505 44.3298 45.5557 48.0616ZM48.8042 30.96C47.5215 22.9268 41.0835 16.4888 33.04 15.1968V9.14312C44.3696 10.5084 53.4917 19.6304 54.8569 30.96H48.8042Z" fill="white"/>
<path d="M44.8896 17.6965C44.4991 18.0871 44.4991 18.7202 44.8896 19.1107C45.2801 19.5013 45.9132 19.5013 46.3037 19.1107C46.6943 18.7202 46.6943 18.0871 46.3037 17.6965C45.9132 17.306 45.2801 17.306 44.8896 17.6965Z" fill="white"/>
<path d="M51.0552 27.3752C51.5742 27.1863 51.8417 26.6125 51.6528 26.0935C51.4639 25.5745 50.8901 25.307 50.3712 25.4958C49.8522 25.6847 49.5846 26.2586 49.7734 26.7775C49.9623 27.2965 50.5362 27.5641 51.0552 27.3752Z" fill="white"/>
<path d="M37.9067 12.3471C37.3877 12.1582 36.8139 12.4258 36.625 12.9447C36.4361 13.4637 36.7037 14.0376 37.2227 14.2264C37.7417 14.4153 38.3155 14.1478 38.5044 13.6288C38.6933 13.1098 38.4257 12.5359 37.9067 12.3471Z" fill="white"/>
<path d="M30.04 30.96C28.3857 30.96 27.04 32.3057 27.04 33.96C27.04 35.6143 28.3857 36.96 30.04 36.96C31.6943 36.96 33.04 35.6143 33.04 33.96C33.04 32.3057 31.6943 30.96 30.04 30.96ZM30.04 34.96C29.4888 34.96 29.04 34.5112 29.04 33.96C29.04 33.4087 29.4888 32.96 30.04 32.96C30.5913 32.96 31.04 33.4087 31.04 33.96C31.04 34.5112 30.5913 34.96 30.04 34.96Z" fill="white"/>
<path d="M30.04 22.96C28.3857 22.96 27.04 24.3057 27.04 25.96C27.04 27.6143 28.3857 28.96 30.04 28.96C31.6943 28.96 33.04 27.6143 33.04 25.96C33.04 24.3057 31.6943 22.96 30.04 22.96ZM30.04 26.96C29.4888 26.96 29.04 26.5112 29.04 25.96C29.04 25.4087 29.4888 24.96 30.04 24.96C30.5913 24.96 31.04 25.4087 31.04 25.96C31.04 26.5112 30.5913 26.96 30.04 26.96Z" fill="white"/>
<path d="M22.04 30.96C20.3857 30.96 19.04 32.3057 19.04 33.96C19.04 35.6143 20.3857 36.96 22.04 36.96C23.6943 36.96 25.04 35.6143 25.04 33.96C25.04 32.3057 23.6943 30.96 22.04 30.96ZM22.04 34.96C21.4888 34.96 21.04 34.5112 21.04 33.96C21.04 33.4087 21.4888 32.96 22.04 32.96C22.5913 32.96 23.04 33.4087 23.04 33.96C23.04 34.5112 22.5913 34.96 22.04 34.96Z" fill="white"/>
<path d="M30.04 38.96C28.3857 38.96 27.04 40.3057 27.04 41.96C27.04 43.6143 28.3857 44.96 30.04 44.96C31.6943 44.96 33.04 43.6143 33.04 41.96C33.04 40.3057 31.6943 38.96 30.04 38.96ZM30.04 42.96C29.4888 42.96 29.04 42.5112 29.04 41.96C29.04 41.4087 29.4888 40.96 30.04 40.96C30.5913 40.96 31.04 41.4087 31.04 41.96C31.04 42.5112 30.5913 42.96 30.04 42.96Z" fill="white"/>
<path d="M35.04 33.96C35.04 35.6143 36.3857 36.96 38.04 36.96C39.6943 36.96 41.04 35.6143 41.04 33.96C41.04 32.3057 39.6943 30.96 38.04 30.96C36.3857 30.96 35.04 32.3057 35.04 33.96ZM39.04 33.96C39.04 34.5112 38.5913 34.96 38.04 34.96C37.4888 34.96 37.04 34.5112 37.04 33.96C37.04 33.4087 37.4888 32.96 38.04 32.96C38.5913 32.96 39.04 33.4087 39.04 33.96Z" fill="white"/>
</svg>
