<svg width="12" height="12" viewBox="0 0 12 12" fill="none" xmlns="http://www.w3.org/2000/svg">
<path d="M11.1281 0.113566L3.73959 -6.75987e-05C3.54397 0.000323878 3.3587 0.0775715 3.22367 0.215039C3.08865 0.352506 3.01468 0.539193 3.01769 0.734891C3.0207 0.930589 3.10045 1.11964 3.23977 1.26133C3.37908 1.40301 3.56682 1.486 3.76254 1.49241L9.3493 1.57833L0.211035 10.7166C0.0732201 10.8544 -0.00249347 11.043 0.000550935 11.241C0.00359533 11.4389 0.0851481 11.63 0.227269 11.7721C0.369389 11.9142 0.560436 11.9958 0.75838 11.9988C0.956325 12.0019 1.14495 11.9261 1.28277 11.7883L10.421 2.65006L10.507 8.23682C10.5068 8.33588 10.5263 8.4346 10.5644 8.52721C10.6026 8.61982 10.6586 8.70448 10.7291 8.77623C10.7997 8.84798 10.8834 8.90539 10.9754 8.94512C11.0674 8.98485 11.1658 9.0061 11.2649 9.00762C11.364 9.00914 11.4618 8.99092 11.5526 8.954C11.6434 8.91708 11.7254 8.86222 11.7938 8.7926C11.8621 8.72299 11.9155 8.64002 11.9509 8.54854C11.9862 8.45705 12.0027 8.35889 11.9994 8.25978L11.8858 0.87128C11.8827 0.673374 11.8012 0.482374 11.6591 0.340282C11.517 0.198189 11.326 0.116639 11.1281 0.113566Z" fill="white"/>
</svg>
