<svg width="146" height="56" viewBox="0 0 146 56" fill="none" xmlns="http://www.w3.org/2000/svg">
<g clip-path="url(#clip0_151_131)">
<path d="M34.6557 0C28.954 0 23.486 2.25876 19.4543 6.27939L6.29664 19.401C2.26497 23.4216 0 28.8747 0 34.5608C0 46.4014 9.62503 56 21.4981 56C27.1998 56 32.6679 53.7411 36.6995 49.7205L45.8008 40.6442C45.8008 40.6441 45.801 40.6444 45.8008 40.6442L72.3187 14.199C74.2442 12.2788 76.8557 11.2 79.5788 11.2C84.1377 11.2 88.0028 14.1632 89.3428 18.2636L97.7118 9.91753C93.8939 3.95424 87.1994 0 79.5788 0C73.8771 0 68.409 2.25876 64.3774 6.27939L28.7583 41.801C26.8327 43.7213 24.2212 44.8 21.4981 44.8C15.8276 44.8 11.2308 40.2158 11.2308 34.5608C11.2308 31.8451 12.3125 29.2408 14.238 27.3205L27.3956 14.199C29.3211 12.2788 31.9326 11.2 34.6557 11.2C39.2149 11.2 43.0797 14.1633 44.4198 18.2639L52.7889 9.91773C48.971 3.95435 42.2765 0 34.6557 0Z" fill="white"/>
<path d="M73.6815 41.801C71.7559 43.7213 69.1444 44.8 66.4213 44.8C61.8629 44.8 57.9982 41.8376 56.6579 37.7378L48.2891 46.0837C52.1071 52.0462 58.8012 56 66.4213 56C72.123 56 77.5911 53.7411 81.6227 49.7205L117.242 14.199C119.167 12.2788 121.779 11.2 124.502 11.2C130.173 11.2 134.769 15.7842 134.769 21.4392C134.769 24.1549 133.688 26.7592 131.762 28.6795L118.605 41.801C116.679 43.7213 114.067 44.8 111.344 44.8C106.786 44.8 102.921 41.837 101.581 37.7369L93.2118 46.083C97.0297 52.046 103.724 56 111.344 56C117.046 56 122.514 53.7411 126.546 49.7205L139.703 36.599C143.735 32.5784 146 27.1253 146 21.4392C146 9.59866 136.375 0 124.502 0C118.8 0 113.332 2.25876 109.301 6.27939L73.6815 41.801Z" fill="white"/>
</g>
<defs>
<clipPath id="clip0_151_131">
<rect width="146" height="56" fill="white"/>
</clipPath>
</defs>
</svg>
