<svg width="64" height="64" viewBox="0 0 64 64" fill="none" xmlns="http://www.w3.org/2000/svg">
<path d="M43.9996 37C43.4607 37 42.9346 37.0599 42.4246 37.1774C42.6275 36.6851 42.6445 36.6358 42.652 36.6133C42.8249 36.0972 42.5504 35.5435 42.0377 35.3609C41.5275 35.1763 40.9577 35.4444 40.7643 35.9541C40.6808 36.1734 39.7067 38.5025 39.7062 38.503C39.5206 38.9473 39.6784 39.4615 40.0812 39.7251C40.0812 39.7251 42.2306 41.1328 42.2306 41.1328C42.6889 41.4335 43.3159 41.3006 43.6149 40.8443C43.9176 40.3824 43.7882 39.7622 43.3263 39.46L42.8349 39.138C43.211 39.0481 43.5996 39 43.9996 39C46.7565 39 48.9996 41.2432 48.9996 44C48.9996 44.7621 48.8352 45.4856 48.5111 46.1515C47.9532 47.2977 49.7456 48.1826 50.3087 47.0279C50.7672 46.0869 50.9996 45.0684 50.9996 44C50.9996 40.1402 47.8595 37 43.9996 37Z" fill="white"/>
<path d="M47.9717 47.9424L45.3789 46.7568C44.8774 46.5278 44.2837 46.7485 44.0532 47.2505C43.8237 47.7529 44.0449 48.3462 44.5469 48.5761L45.1692 48.8606C44.7917 48.9513 44.4017 49 44 49C41.2432 49 39 46.7568 39 44C39 43.2377 39.1645 42.5141 39.4888 41.8481C39.7305 41.3515 39.5244 40.7529 39.0278 40.5112C38.5293 40.268 37.9321 40.4755 37.6909 40.9721C37.2324 41.913 37 42.9316 37 44C37 47.8598 40.1401 51 44 51C44.7236 51 45.4217 50.8845 46.091 50.6732C46.091 50.6732 45.9531 51.2485 45.9531 51.2485C45.662 52.4662 47.6041 52.9441 47.8984 51.7143L48.5283 49.0849C48.6396 48.6201 48.4062 48.1416 47.9717 47.9424Z" fill="white"/>
<path d="M44 31C43.6625 31 43.3311 31.0253 43 31.0507V16C43 14.3457 41.6543 13 40 13H38V10C38 8.3457 36.6543 7 35 7H28.8994C27.2451 7 25.8994 8.3457 25.8994 10V13H20.8999C20.5768 13 20.3001 13.1857 20.0713 13.4145L17.7783 11.1216C17.3877 10.731 16.7549 10.731 16.3643 11.1216L15.6571 11.8287L13.5357 9.70654C12.3657 8.53759 10.4629 8.53711 9.29297 9.70703L7.87891 11.1211C7.31202 11.688 7 12.4414 7 13.2427C7 14.0439 7.31201 14.7974 7.87891 15.3638L10.0001 17.4853L9.29297 18.1924C9.10547 18.3799 9 18.6343 9 18.8994C9 19.1645 9.10547 19.4189 9.29297 19.6064L11.5862 21.8996L11.1929 22.2929C11.0054 22.4804 10.8999 22.7348 10.8999 23V54C10.8999 55.6543 12.2456 57 13.8999 57H44C51.1685 57 57 51.1684 57 44C57 36.8315 51.1685 31 44 31ZM9 13.2427C9 12.9756 9.104 12.7246 9.29297 12.5357L10.707 11.1216C11.0962 10.731 11.7314 10.7315 12.1216 11.1211L14.2427 13.2427L11.4141 16.0713L9.29297 13.9492C9.10401 13.7607 9 13.5098 9 13.2427ZM17.0713 13.2427L18.4853 14.6567L12.8286 20.314L11.4141 18.8994L17.0713 13.2427ZM27.8994 10C27.8994 9.44873 28.3481 9 28.8994 9H35C35.5513 9 36 9.44873 36 10V13H27.8994V10ZM13.8999 55C13.3486 55 12.8999 54.5513 12.8999 54V23.4141L21.314 15H40C40.5513 15 41 15.4487 41 16V31.3633C40.312 31.5267 39.6411 31.7347 39 32.0029V26C39 25.4478 38.5522 25 38 25H16C15.4478 25 15 25.4478 15 26V48C15 48.5522 15.4478 49 16 49H32.0029C33.0441 51.4889 34.843 53.5777 37.1035 55H13.8999ZM31.0507 43H21V31H33V37.1035C31.9081 38.8386 31.2159 40.8444 31.0507 43ZM34 29H20C19.4478 29 19 29.4478 19 30V44C19 44.5522 19.4478 45 20 45H31.0507C31.103 45.6833 31.209 46.3501 31.3633 47H17V27H37V33.0629C36.282 33.5241 35.6124 34.0516 35 34.6408V30C35 29.4478 34.5522 29 34 29ZM44 55C37.9346 55 33 50.0654 33 44C33 37.9346 37.9346 33 44 33C50.0654 33 55 37.9346 55 44C55 50.0654 50.0654 55 44 55Z" fill="white"/>
<path d="M27.8228 33.4316C27.4497 32.8906 26.5503 32.8906 26.1772 33.4316C25.5225 34.3794 24 36.7217 24 38C24 39.6543 25.3457 41 27 41C28.6543 41 30 39.6543 30 38C30 36.7217 28.4775 34.3794 27.8228 33.4316ZM27 39C26.4487 39 26 38.5513 26 38.001C26.0083 37.6953 26.4238 36.8242 27 35.8535C27.5757 36.8237 27.9917 37.6948 28 38.001C27.9995 38.5518 27.5513 39 27 39Z" fill="white"/>
</svg>
