<svg width="14" height="14" viewBox="0 0 14 14" fill="none" xmlns="http://www.w3.org/2000/svg">
<mask id="mask0_47_22" style="mask-type:alpha" maskUnits="userSpaceOnUse" x="-2" y="-2" width="18" height="18">
<rect x="-1.39967" y="-1.39992" width="16.8001" height="16.8001" fill="#D9D9D9"/>
</mask>
<g mask="url(#mask0_47_22)">
<path d="M9.31006 10.2901L10.2901 9.31006L7.70005 6.72004V3.50002H6.30004V7.28004L9.31006 10.2901ZM7.00004 14.0001C6.0317 14.0001 5.1217 13.8163 4.27003 13.4488C3.41835 13.0813 2.67752 12.5826 2.04751 11.9526C1.41751 11.3226 0.918756 10.5817 0.551253 9.73006C0.183751 8.87839 0 7.96838 0 7.00004C0 6.0317 0.183751 5.1217 0.551253 4.27003C0.918756 3.41835 1.41751 2.67752 2.04751 2.04751C2.67752 1.41751 3.41835 0.918756 4.27003 0.551253C5.1217 0.183751 6.0317 0 7.00004 0C7.96838 0 8.87839 0.183751 9.73006 0.551253C10.5817 0.918756 11.3226 1.41751 11.9526 2.04751C12.5826 2.67752 13.0813 3.41835 13.4488 4.27003C13.8163 5.1217 14.0001 6.0317 14.0001 7.00004C14.0001 7.96838 13.8163 8.87839 13.4488 9.73006C13.0813 10.5817 12.5826 11.3226 11.9526 11.9526C11.3226 12.5826 10.5817 13.0813 9.73006 13.4488C8.87839 13.8163 7.96838 14.0001 7.00004 14.0001ZM7.00004 12.6001C8.55172 12.6001 9.87298 12.0547 10.9638 10.9638C12.0547 9.87298 12.6001 8.55172 12.6001 7.00004C12.6001 5.44837 12.0547 4.12711 10.9638 3.03627C9.87298 1.94543 8.55172 1.40001 7.00004 1.40001C5.44837 1.40001 4.12711 1.94543 3.03627 3.03627C1.94543 4.12711 1.40001 5.44837 1.40001 7.00004C1.40001 8.55172 1.94543 9.87298 3.03627 10.9638C4.12711 12.0547 5.44837 12.6001 7.00004 12.6001Z" fill="#222222"/>
</g>
</svg>
