<svg width="20" height="16" viewBox="0 0 20 16" fill="none" xmlns="http://www.w3.org/2000/svg">
<path d="M17.675 3.98748C17.688 4.16289 17.688 4.33731 17.688 4.51172C17.688 9.84941 13.6254 16 6.20074 16C3.9133 16 1.78825 15.3375 0 14.1867C0.324772 14.2238 0.637515 14.2368 0.975318 14.2368C2.79263 14.2412 4.55848 13.6335 5.98823 12.5117C5.14565 12.4965 4.32886 12.2185 3.65192 11.7166C2.97497 11.2147 2.47166 10.5139 2.21226 9.71208C2.46185 9.74917 2.71245 9.77423 2.97507 9.77423C3.33693 9.77423 3.7008 9.72411 4.0386 9.6369C3.12418 9.45228 2.30194 8.95664 1.71169 8.23425C1.12143 7.51187 0.799593 6.60735 0.800903 5.67449V5.62437C1.33918 5.92408 1.96367 6.11152 2.62524 6.13658C2.07101 5.76829 1.61656 5.26854 1.30244 4.68192C0.988308 4.09529 0.824272 3.44003 0.824961 2.77459C0.824961 2.02481 1.02443 1.33718 1.37427 0.737754C2.38882 1.98574 3.65419 3.00671 5.08843 3.73453C6.52267 4.46236 8.0938 4.88082 9.70005 4.9628C9.6379 4.66208 9.59981 4.35034 9.59981 4.0376C9.59955 3.5073 9.70381 2.98215 9.90662 2.49216C10.1094 2.00218 10.4068 1.55698 10.7818 1.182C11.1568 0.807019 11.602 0.509622 12.092 0.306808C12.582 0.103993 13.1071 -0.000263004 13.6374 4.98247e-07C14.8002 4.98247e-07 15.8497 0.487158 16.5874 1.27503C17.4913 1.10023 18.3582 0.770253 19.1495 0.299713C18.8482 1.23275 18.2171 2.02391 17.3743 2.525C18.176 2.43356 18.9595 2.22274 19.6988 1.89951C19.1466 2.70453 18.4624 3.41045 17.675 3.98748Z" fill="white"/>
</svg>
