<svg width="64" height="64" viewBox="0 0 64 64" fill="none" xmlns="http://www.w3.org/2000/svg">
<path d="M32 13C25.9346 13 21 17.9346 21 24C21 30.0654 25.9346 35 32 35C38.0654 35 43 30.0654 43 24C43 17.9346 38.0654 13 32 13ZM41 24C41 24.5611 40.9416 25.1081 40.8429 25.6411L38 24L40.8429 22.3589C40.9416 22.8919 41 23.4389 41 24ZM23 24C23 23.4389 23.0584 22.8919 23.1571 22.3589L26 24L23.1571 25.6411C23.0584 25.1081 23 24.5611 23 24ZM26.1608 17.1647C26.9906 16.4547 27.951 15.8976 29 15.5251V18.8037L26.1608 17.1647ZM28.2766 20.6958C27.8329 21.1953 27.4941 21.7807 27.2778 22.4279L23.7585 20.3964C24.0289 19.7803 24.3702 19.204 24.7655 18.6689L28.2766 20.6958ZM27.2778 25.5721C27.4941 26.2193 27.8329 26.8047 28.2766 27.3042L24.7655 29.3311C24.3702 28.796 24.0289 28.2197 23.7585 27.6036L27.2778 25.5721ZM29 29.1963V32.4749C27.951 32.1024 26.9906 31.5453 26.1608 30.8353L29 29.1963ZM29 24C29 22.3457 30.3457 21 32 21C33.6543 21 35 22.3457 35 24C35 25.6543 33.6543 27 32 27C30.3457 27 29 25.6543 29 24ZM35.7234 20.6958L39.2345 18.6689C39.6298 19.204 39.9711 19.7803 40.2416 20.3963L36.7222 22.4279C36.5059 21.7807 36.1671 21.1953 35.7234 20.6958ZM35 18.8037V15.5251C36.049 15.8976 37.0094 16.4547 37.8392 17.1647L35 18.8037ZM37.8392 30.8353C37.0094 31.5453 36.049 32.1024 35 32.4749V29.1963L37.8392 30.8353ZM35.7234 27.3042C36.1671 26.8047 36.5059 26.2193 36.7222 25.5721L40.2416 27.6037C39.9711 28.2197 39.6298 28.796 39.2345 29.3311L35.7234 27.3042ZM33 15.059V19.1011C32.6768 19.0352 32.3424 19 32 19C31.6576 19 31.3232 19.0352 31 19.1011V15.059C31.3287 15.0224 31.6617 15 32 15C32.3383 15 32.6713 15.0224 33 15.059ZM31 32.941V28.8989C31.3232 28.9648 31.6576 29 32 29C32.3424 29 32.6768 28.9648 33 28.8989V32.941C32.6713 32.9776 32.3383 33 32 33C31.6617 33 31.3287 32.9776 31 32.941Z" fill="white"/>
<path d="M50 39H39.983C45.3424 36.1362 49 30.4894 49 24C49 14.626 41.374 7 32 7C22.626 7 15 14.626 15 24C15 30.4894 18.6576 36.1362 24.017 39H14C12.3457 39 11 40.3457 11 42V54C11 55.6543 12.3457 57 14 57H50C51.6543 57 53 55.6543 53 54V42C53 40.3457 51.6543 39 50 39ZM23.5859 52L20.5859 55H17.4141L20.4141 52H23.5859ZM26.4141 52H29.5859L26.5859 55H23.4141L26.4141 52ZM32.4141 52H35.5859L32.5859 55H29.4141L32.4141 52ZM38.4141 52H41.5859L38.5859 55H35.4141L38.4141 52ZM44.4141 52H47.5859L44.5859 55H41.4141L44.4141 52ZM13 50V46H51V50H13ZM26.5859 41L29.5859 44H26.4141L23.4141 41H26.5859ZM32.5859 41L35.5859 44H32.4141L29.4141 41H32.5859ZM44.4141 44L41.4141 41H44.5859L47.5859 44H44.4141ZM38.5859 41L41.5859 44H38.4141L35.4141 41H38.5859ZM23.5859 44H20.4141L17.4141 41H20.5859L23.5859 44ZM51 42V44H50.4141L47.4141 41H50C50.5518 41 51 41.4487 51 42ZM17 24C17 15.729 23.7285 9 32 9C40.2715 9 47 15.729 47 24C47 32.271 40.2715 39 32 39C23.7285 39 17 32.271 17 24ZM13 42C13 41.4487 13.4482 41 14 41H14.5859L17.5859 44H13V42ZM13 54V52H17.5859L14.5859 55H14C13.4482 55 13 54.5513 13 54ZM51 54C51 54.5513 50.5518 55 50 55H47.4141L50.4141 52H51V54Z" fill="white"/>
</svg>
