<svg width="80" height="80" viewBox="0 0 80 80" fill="none" xmlns="http://www.w3.org/2000/svg">
<path d="M44.0492 64.2232C44.121 56.8803 42.2594 50.9091 39.8914 50.8859C37.5233 50.8629 35.5454 56.7967 35.4737 64.1394C35.4019 71.4823 37.2634 77.4536 39.6314 77.4767C41.9996 77.4999 43.9775 71.5661 44.0492 64.2232Z" fill="white"/>
<path d="M30.3154 62.5555C34.3459 56.4173 36.0085 50.3875 34.029 49.0877C32.0493 47.7878 27.1771 51.7101 23.1467 57.8483C19.1162 63.9866 17.4536 70.0162 19.4331 71.3162C21.4128 72.616 26.2848 68.6938 30.3154 62.5555Z" fill="white"/>
<path d="M19.6469 53.7488C26.3564 50.7645 31.0151 46.591 30.0525 44.4272C29.0901 42.2634 22.8709 42.9286 16.1615 45.9131C9.45211 48.8974 4.79334 53.0709 5.75582 55.2347C6.71828 57.3986 12.9375 56.7333 19.6469 53.7488Z" fill="white"/>
<path d="M29.2472 38.3592C29.6075 36.0186 24.0159 33.2155 16.7583 32.0984C9.50056 30.9813 3.32497 31.9733 2.96472 34.3139C2.60446 36.6546 8.19595 39.4574 15.4537 40.5746C22.7113 41.6917 28.887 40.6997 29.2472 38.3592Z" fill="white"/>
<path d="M31.8531 32.7832C33.4215 31.0088 30.2323 25.6282 24.7301 20.7653C19.2279 15.9024 13.4961 13.3988 11.9278 15.1733C10.3595 16.9478 13.5486 22.3285 19.0509 27.1914C24.5531 32.0542 30.285 34.5578 31.8531 32.7832Z" fill="white"/>
<path d="M37.042 29.5245C39.3207 28.8797 39.5471 22.629 37.5478 15.5633C35.5484 8.49751 32.0802 3.29233 29.8015 3.93714C27.5228 4.58196 27.2964 10.8326 29.2958 17.8984C31.2951 24.964 34.7633 30.1693 37.042 29.5245Z" fill="white"/>
<path d="M51.1336 18.1182C53.272 11.0933 53.1689 4.8394 50.9033 4.14978C48.6377 3.46015 45.0676 8.59592 42.9292 15.6209C40.791 22.6458 40.894 28.8997 43.1596 29.5893C45.4252 30.2789 48.9953 25.1432 51.1336 18.1182Z" fill="white"/>
<path d="M61.2022 27.6104C66.7985 22.856 70.0923 17.5387 68.5588 15.734C67.0256 13.9292 61.2459 16.3203 55.6497 21.0745C50.0534 25.8289 46.7598 31.1462 48.2931 32.951C49.8264 34.7558 55.606 32.3648 61.2022 27.6104Z" fill="white"/>
<path d="M64.5312 41.043C71.8096 40.0693 77.4552 37.3771 77.1411 35.0298C76.8272 32.6826 70.6723 31.5691 63.3939 32.5427C56.1157 33.5165 50.4699 36.2086 50.784 38.556C51.0981 40.9032 57.2528 42.0168 64.5312 41.043Z" fill="white"/>
<path d="M73.9204 55.9056C74.9254 53.7613 70.3499 49.4968 63.7006 46.3807C57.0515 43.2645 50.8465 42.4768 49.8415 44.6211C48.8366 46.7656 53.4121 51.0301 60.0614 54.1463C66.7105 57.2623 72.9155 58.0501 73.9204 55.9056Z" fill="white"/>
<path d="M59.9343 71.7278C61.9391 70.4673 60.3957 64.4059 56.4871 58.1894C52.5784 51.9729 47.7845 47.9555 45.7797 49.216C43.7749 50.4765 45.3183 56.5379 49.2269 62.7544C53.1355 68.9709 57.9295 72.9885 59.9343 71.7278Z" fill="white"/>
</svg>
