<svg width="64" height="64" viewBox="0 0 64 64" fill="none" xmlns="http://www.w3.org/2000/svg">
<path d="M43.311 32.0425C42.562 32.4761 41.6655 32.4761 40.9145 32.0425C40.1645 31.6089 39.7163 30.8335 39.7163 29.9673C39.7163 29.4146 39.269 28.9673 38.7163 28.9673H35.1167C34.5639 28.9673 34.1167 29.4146 34.1167 29.9673C34.1167 30.8335 33.6684 31.6089 32.9184 32.0425C32.1674 32.4761 31.271 32.4761 30.5219 32.0425C30.0444 31.7671 29.4321 31.9292 29.1557 32.4087L27.3559 35.5259C27.0796 36.0044 27.2436 36.6157 27.7221 36.8921C28.4721 37.3247 28.9204 38.1011 28.9204 38.9673C28.9204 39.8335 28.4721 40.6099 27.7221 41.0425C27.2436 41.3189 27.0796 41.9302 27.3559 42.4087L29.1557 45.5259C29.4321 46.0044 30.0444 46.1675 30.5219 45.8921C31.271 45.4595 32.1674 45.4575 32.9184 45.8921C33.6684 46.3257 34.1167 47.1011 34.1167 47.9673C34.1167 48.52 34.5639 48.9673 35.1167 48.9673H38.7163C39.269 48.9673 39.7163 48.52 39.7163 47.9673C39.7163 47.1011 40.1645 46.3257 40.9145 45.8921C41.6655 45.4575 42.562 45.4595 43.311 45.8921C43.7866 46.1675 44.3999 46.0044 44.6772 45.5259L46.477 42.4087C46.7534 41.9302 46.5893 41.3189 46.1108 41.0425C45.3608 40.6089 44.9125 39.8335 44.9125 38.9673C44.9125 38.1011 45.3608 37.3257 46.1108 36.8921C46.5893 36.6157 46.7534 36.0044 46.477 35.5259L44.6772 32.4087C44.3999 31.9292 43.7866 31.7671 43.311 32.0425ZM44.3002 42.1782L43.3891 43.7573C42.2387 43.4028 40.9936 43.5366 39.9135 44.1606C38.8344 44.7837 38.0961 45.7944 37.8286 46.9673H36.0043C35.7368 45.7944 34.9985 44.7837 33.9194 44.1606C32.8383 43.5366 31.5922 43.4019 30.4438 43.7573L29.5317 42.1772C30.4145 41.3589 30.9203 40.2144 30.9203 38.9673C30.9203 37.7202 30.4145 36.5757 29.5317 35.7573L30.4438 34.1772C31.5932 34.5327 32.8393 34.3979 33.9194 33.7739C34.9985 33.1509 35.7368 32.1401 36.0043 30.9673H37.8286C38.0961 32.1401 38.8344 33.1509 39.9135 33.7739C40.9936 34.397 42.2387 34.5327 43.3891 34.1772L44.3002 35.7563C43.4184 36.5757 42.9125 37.7202 42.9125 38.9673C42.9125 40.2144 43.4184 41.3589 44.3002 42.1782Z" fill="white"/>
<path d="M36.916 34.9673C34.71 34.9673 32.916 36.7612 32.916 38.9673C32.916 41.1733 34.71 42.9673 36.916 42.9673C39.1221 42.9673 40.916 41.1733 40.916 38.9673C40.916 36.7612 39.1221 34.9673 36.916 34.9673ZM36.916 40.9673C35.8135 40.9673 34.916 40.0698 34.916 38.9673C34.916 37.8647 35.8135 36.9673 36.916 36.9673C38.0186 36.9673 38.916 37.8647 38.916 38.9673C38.916 40.0698 38.0186 40.9673 36.916 40.9673Z" fill="white"/>
<path d="M54 10.9673H52C51.45 10.9673 51 11.4173 51 11.9673V13.9673H49V12.9673C49 11.3173 47.65 9.96729 46 9.96729H41.72L40.95 7.64727C40.81 7.24725 40.43 6.96729 40 6.96729H24C23.57 6.96729 23.19 7.24725 23.05 7.64727L22.28 9.96729H18C16.35 9.96729 15 11.3173 15 12.9673V13.9673H13V11.9673C13 11.4173 12.55 10.9673 12 10.9673H10C8.34998 10.9673 7 12.3173 7 13.9673V27.9673C7 29.6172 8.34998 30.9673 10 30.9673H12C12.55 30.9673 13 30.5173 13 29.9673V27.9673H15V28.9673C15 30.6172 16.35 31.9673 18 31.9673H22.28L23.05 34.2873C23.13 34.5373 23.32 34.7273 23.54 34.8373C23.13 36.1473 22.92 37.5273 22.92 38.9673C22.92 46.6873 29.2 52.9673 36.92 52.9673C39.69 52.9673 42.28 52.1473 44.46 50.7473L49.89 56.1772C51.0189 57.3061 52.9678 57.3294 54.12 56.1772C55.29 55.0073 55.29 53.1073 54.12 51.9373L48.69 46.5073C50.09 44.3273 50.92 41.7473 50.92 38.9673C50.92 35.9373 49.94 33.1373 48.3 30.8473C48.73 30.3173 49 29.6673 49 28.9673V27.9673H51V29.9673C51 30.5173 51.45 30.9673 52 30.9673H54C55.65 30.9673 57 29.6172 57 27.9673V13.9673C57 12.3173 55.65 10.9673 54 10.9673ZM11 28.9673H10C9.45001 28.9673 9 28.5173 9 27.9673V13.9673C9 13.4173 9.45001 12.9673 10 12.9673H11V28.9673ZM15 25.9673H13V15.9673H15V25.9673ZM45 11.9673H46C46.55 11.9673 47 12.4173 47 12.9673V28.9673C47 29.0573 46.99 29.1473 46.96 29.2372C46.36 28.6172 45.7 28.0573 45 27.5573V11.9673ZM19 29.9673H18C17.45 29.9673 17 29.5173 17 28.9673V12.9673C17 12.4173 17.45 11.9673 18 11.9673H19V29.9673ZM23.95 30.6473C23.81 30.2473 23.43 29.9673 23 29.9673H21V11.9673H23C23.43 11.9673 23.81 11.6873 23.95 11.2873L24.72 8.96729H39.28L40.05 11.2873C40.19 11.6873 40.57 11.9673 41 11.9673H43V26.3773C42.02 25.8973 40.98 25.5273 39.89 25.2873C40.61 23.9773 41 22.4872 41 20.9673C41 16.0073 36.96 11.9673 32 11.9673C27.04 11.9673 23 16.0073 23 20.9673C23 24.1673 24.73 27.0973 27.43 28.6973C26.27 29.7673 25.29 31.0273 24.54 32.4372L23.95 30.6473ZM39 20.9673C39 22.4173 38.52 23.8273 37.69 25.0073C37.43 24.9872 37.18 24.9673 36.92 24.9673C34.04 24.9673 31.37 25.8373 29.14 27.3273C26.65 26.2073 25 23.7273 25 20.9673C25 17.1073 28.14 13.9673 32 13.9673C35.86 13.9673 39 17.1073 39 20.9673ZM52.71 53.3573C53.1 53.7372 53.1 54.3773 52.71 54.7573C52.32 55.1473 51.69 55.1473 51.3 54.7573L46.07 49.5273C46.58 49.0973 47.05 48.6273 47.48 48.1273L52.71 53.3573ZM48.92 38.9673C48.92 45.5873 43.53 50.9673 36.92 50.9673C30.3 50.9673 24.92 45.5873 24.92 38.9673C24.92 37.3373 25.25 35.7773 25.84 34.3573V34.3473C27.66 30.0173 31.94 26.9673 36.92 26.9673C43.53 26.9673 48.92 32.3473 48.92 38.9673ZM51 25.9673H49V15.9673H51V25.9673ZM55 27.9673C55 28.5173 54.55 28.9673 54 28.9673H53V12.9673H54C54.55 12.9673 55 13.4173 55 13.9673V27.9673Z" fill="white"/>
<path d="M34.293 18.2603L31 21.5532L29.707 20.2603C29.3164 19.8696 28.6836 19.8696 28.293 20.2603C27.9023 20.6509 27.9023 21.2837 28.293 21.6743L30.293 23.6743C30.4883 23.8696 30.7441 23.9673 31 23.9673C31.2559 23.9673 31.5117 23.8696 31.707 23.6743L35.707 19.6743C36.0976 19.2837 36.0976 18.6509 35.707 18.2603C35.3164 17.8696 34.6836 17.8696 34.293 18.2603Z" fill="white"/>
</svg>
