<svg width="19" height="19" viewBox="0 0 19 19" fill="none" xmlns="http://www.w3.org/2000/svg">
<path d="M18.468 3.27201C18.2241 2.64224 17.8514 2.07032 17.3738 1.59288C16.8962 1.11543 16.3241 0.742966 15.6943 0.499334C14.9572 0.222654 14.1785 0.0730473 13.3914 0.0568861C12.377 0.0126413 12.0557 0 9.48314 0C6.91062 0 6.58089 -1.05959e-07 5.57485 0.0568861C4.78833 0.072221 4.01022 0.221858 3.27412 0.499334C2.64409 0.742682 2.07188 1.11504 1.59422 1.59253C1.11655 2.07001 0.743975 2.64207 0.500388 3.27201C0.223652 4.00902 0.0743887 4.78775 0.0589931 5.57485C0.0136948 6.58826 0 6.90957 0 9.48314C0 12.0557 -7.8488e-09 12.3833 0.0589931 13.3914C0.0747948 14.1794 0.223331 14.9569 0.500388 15.6953C0.744659 16.325 1.1176 16.8969 1.59538 17.3743C2.07316 17.8517 2.64528 18.2242 3.27517 18.468C4.00988 18.7558 4.78831 18.9161 5.57695 18.942C6.59142 18.9863 6.91273 19 9.48525 19C12.0578 19 12.3875 19 13.3935 18.942C14.1806 18.926 14.9592 18.7768 15.6964 18.5007C16.3261 18.2565 16.898 17.8837 17.3755 17.4061C17.8531 16.9285 18.2259 16.3566 18.4701 15.7269C18.7472 14.9895 18.8957 14.2121 18.9115 13.4241C18.9568 12.4107 18.9705 12.0894 18.9705 9.5158C18.9705 6.94222 18.9705 6.61565 18.9115 5.6075C18.8992 4.80928 18.7492 4.01917 18.468 3.27201ZM17.1849 13.3135C17.1781 13.9206 17.0673 14.522 16.8573 15.0917C16.6991 15.5013 16.4569 15.8734 16.1463 16.1838C15.8357 16.4942 15.4635 16.7362 15.0538 16.8941C14.4904 17.1032 13.8954 17.214 13.2945 17.2218C12.2937 17.2681 12.0114 17.2797 9.44522 17.2797C6.87691 17.2797 6.6146 17.2797 5.59486 17.2218C4.99432 17.2144 4.39954 17.1036 3.83666 16.8941C3.42548 16.7372 3.05184 16.4956 2.7399 16.1851C2.42796 15.8746 2.18468 15.5021 2.02578 15.0917C1.81872 14.5282 1.70797 13.9338 1.69816 13.3335C1.65286 12.3327 1.64233 12.0504 1.64233 9.48419C1.64233 6.91694 1.64233 6.65463 1.69816 5.63384C1.70497 5.02708 1.81578 4.42598 2.02578 3.85667C2.34708 3.0255 3.00549 2.37131 3.83666 2.05317C4.39982 1.84473 4.99442 1.73394 5.59486 1.72555C6.59669 1.68025 6.87796 1.66761 9.44522 1.66761C12.0125 1.66761 12.2758 1.66761 13.2945 1.72555C13.8954 1.73278 14.4906 1.84361 15.0538 2.05317C15.4635 2.21147 15.8356 2.45369 16.1462 2.76428C16.4568 3.07487 16.699 3.44696 16.8573 3.85667C17.0643 4.42021 17.1751 5.01458 17.1849 5.61488C17.2302 6.61671 17.2418 6.89798 17.2418 9.46523C17.2418 12.0314 17.2418 12.3074 17.1965 13.3145H17.1849V13.3135Z" fill="white"/>
<path d="M9.48366 4.62259C8.19132 4.62259 6.95192 5.13657 6.03809 6.05146C5.12427 6.96635 4.61089 8.2072 4.61089 9.50105C4.61089 10.7949 5.12427 12.0357 6.03809 12.9506C6.95192 13.8655 8.19132 14.3795 9.48366 14.3795C10.776 14.3795 12.0154 13.8655 12.9292 12.9506C13.843 12.0357 14.3564 10.7949 14.3564 9.50105C14.3564 8.2072 13.843 6.96635 12.9292 6.05146C12.0154 5.13657 10.776 4.62259 9.48366 4.62259ZM9.48366 12.6693C8.64409 12.6693 7.8389 12.3354 7.24523 11.741C6.65157 11.1467 6.31805 10.3405 6.31805 9.49999C6.31805 8.65944 6.65157 7.85331 7.24523 7.25895C7.8389 6.66459 8.64409 6.33069 9.48366 6.33069C10.3232 6.33069 11.1284 6.66459 11.7221 7.25895C12.3158 7.85331 12.6493 8.65944 12.6493 9.49999C12.6493 10.3405 12.3158 11.1467 11.7221 11.741C11.1284 12.3354 10.3232 12.6693 9.48366 12.6693Z" fill="white"/>
<path d="M14.5489 5.58055C15.1763 5.58055 15.6849 5.07136 15.6849 4.44323C15.6849 3.81511 15.1763 3.30591 14.5489 3.30591C13.9215 3.30591 13.4129 3.81511 13.4129 4.44323C13.4129 5.07136 13.9215 5.58055 14.5489 5.58055Z" fill="white"/>
</svg>
